# xmcd
#
# Track frame offsets:
#	150
#	18804
#	44244
#	59827
#	63263
#	84618
#	103440
#	126355
#	145754
#
# Disc length: 2453 seconds
#
# Revision: 1
# Processed by: cddbd v1.5.2PL0 Copyright (c) Steve Scherf et al.
# Submitted via: audiograbber 1.83.01
#
DISCID=89099309
DTITLE=WAR PIGS - Degeneration
DYEAR=2009
DGENRE=Rock
TTITLE0=White Sheets
TTITLE1=Tunnel Vision
TTITLE2=Degeneration
TTITLE3=Evil Woman Blues
TTITLE4=Breathing Fire
TTITLE5=Power In The Darkness
TTITLE6=Cerberus
TTITLE7=Stone Palace
TTITLE8=6th Chamber
EXTD=
EXTT0=
EXTT1=
EXTT2=
EXTT3=
EXTT4=
EXTT5=
EXTT6=
EXTT7=
EXTT8=
PLAYORDER=
